# xmcd
#
# Track frame offsets:
#	150
#	11755
#	26042
#	36332
#	49655
#	60722
#	75792
#	87642
#	98350
#	115657
#	127632
#	141380
#	152057
#	168072
#	178807
#	190657
#	201855
#
# Disc length: 2854
#
# Revision: 3
# Processed by: cddbd v1.5.1PL0 Copyright (c) Steve Scherf et al.
# Submitted via: CDex 1.30
# Normalized: r1:TDELIM( - ),TSWAP
#
DISCID=d10b2411
DTITLE=Various Artist - The Best of Blues and Soul CD2
DYEAR=2000
DGENRE=Blues
TTITLE0=Ray Charles - Guitar Blues
TTITLE1=B.B.King - The Letter
TTITLE2=Ted Taylor - I Don't Care
TTITLE3=Lightning Hopkins - Jake Head
TTITLE4=Ted Taylor - Darling Take Me Back
TTITLE5=Jimmy Witherspoon - She Moves Me
TTITLE6=Lightning Hopkins - Sittin' Down Thinkin'
TTITLE7=Ted Taylor - Never In My Life
TTITLE8=Jimmy Witherspoon - Card Playin' Blues
TTITLE9=Lightning Hopkins - Lonesome Dog
TTITLE10=Ted Taylor - She's a Winner
TTITLE11=Lou Rawls - Walking For Miles
TTITLE12=John Lee Hooker - Blues For Christmas
TTITLE13=Jerry Butler - Lost Without You
TTITLE14=Joe Tex - I Can't Take It Back
TTITLE15=Jimmy Reed - Good Lovin'
TTITLE16=Little Richard - I'm Trampin'
EXTD=\nYEAR: 2000  ID3G:   0
EXTT0=
EXTT1=
EXTT2=
EXTT3=
EXTT4=
EXTT5=
EXTT6=
EXTT7=
EXTT8=
EXTT9=
EXTT10=
EXTT11=
EXTT12=
EXTT13=
EXTT14=
EXTT15=
EXTT16=
PLAYORDER=
